# Blender 4.2.3 LTS
# www.blender.org
mtllib circled_surface.mtl
o Circle
v 0.000000 0.000000 -0.997598
v -0.194622 0.000000 -0.978430
v -0.381764 0.000000 -0.921660
v -0.554236 0.000000 -0.829473
v -0.705408 0.000000 -0.705408
v -0.829473 0.000000 -0.554236
v -0.921660 0.000000 -0.381764
v -0.978430 0.000000 -0.194622
v -0.997598 0.000000 0.000000
v -0.978430 0.000000 0.194622
v -0.921660 0.000000 0.381764
v -0.829473 0.000000 0.554236
v -0.705408 0.000000 0.705408
v -0.554236 0.000000 0.829473
v -0.381764 0.000000 0.921660
v -0.194622 0.000000 0.978430
v 0.000000 0.000000 0.997598
v 0.194622 0.000000 0.978430
v 0.381764 0.000000 0.921660
v 0.554236 0.000000 0.829473
v 0.705408 0.000000 0.705408
v 0.829473 0.000000 0.554236
v 0.921660 0.000000 0.381764
v 0.978430 0.000000 0.194622
v 0.997598 0.000000 0.000000
v 0.978430 0.000000 -0.194622
v 0.921660 0.000000 -0.381764
v 0.829473 0.000000 -0.554236
v 0.705408 0.000000 -0.705408
v 0.554236 0.000000 -0.829473
v 0.381764 0.000000 -0.921660
v 0.194622 0.000000 -0.978430
v -0.097545 0.000000 -0.990393
v -0.288887 0.000000 -0.952332
v -0.469127 0.000000 -0.877675
v -0.631338 0.000000 -0.769288
v -0.769288 0.000000 -0.631338
v -0.877675 0.000000 -0.469127
v -0.952332 0.000000 -0.288887
v -0.990393 0.000000 -0.097545
v -0.990393 0.000000 0.097545
v -0.952332 0.000000 0.288887
v -0.877675 0.000000 0.469127
v -0.769288 0.000000 0.631338
v -0.631338 0.000000 0.769288
v -0.469127 0.000000 0.877675
v -0.288887 0.000000 0.952332
v -0.097545 0.000000 0.990393
v 0.097545 0.000000 0.990393
v 0.288887 0.000000 0.952332
v 0.469127 0.000000 0.877675
v 0.631338 0.000000 0.769288
v 0.769288 0.000000 0.631338
v 0.877675 0.000000 0.469127
v 0.952332 0.000000 0.288887
v 0.990393 0.000000 0.097545
v 0.990393 0.000000 -0.097545
v 0.952332 0.000000 -0.288887
v 0.877675 0.000000 -0.469127
v 0.769288 0.000000 -0.631338
v 0.631338 0.000000 -0.769288
v 0.469127 0.000000 -0.877675
v 0.288887 0.000000 -0.952332
v 0.097545 0.000000 -0.990393
v -0.048773 0.000000 -0.995196
v -0.241989 0.000000 -0.966559
v -0.425905 0.000000 -0.900777
v -0.593454 0.000000 -0.800379
v -0.738197 0.000000 -0.669223
v -0.854572 0.000000 -0.512349
v -0.938106 0.000000 -0.335785
v -0.985589 0.000000 -0.146318
v -0.995196 0.000000 0.048773
v -0.966559 0.000000 0.241989
v -0.900777 0.000000 0.425905
v -0.800379 0.000000 0.593454
v -0.669223 0.000000 0.738197
v -0.512349 0.000000 0.854572
v -0.335785 0.000000 0.938106
v -0.146318 0.000000 0.985589
v 0.048773 0.000000 0.995196
v 0.241989 0.000000 0.966559
v 0.425905 0.000000 0.900777
v 0.593454 0.000000 0.800379
v 0.738197 0.000000 0.669223
v 0.854572 0.000000 0.512349
v 0.938106 0.000000 0.335785
v 0.985589 0.000000 0.146318
v 0.995196 0.000000 -0.048773
v 0.966559 0.000000 -0.241989
v 0.900777 0.000000 -0.425905
v 0.800379 0.000000 -0.593454
v 0.669223 0.000000 -0.738197
v 0.512349 0.000000 -0.854572
v 0.335785 0.000000 -0.938106
v 0.146318 0.000000 -0.985589
v -0.146318 0.000000 -0.985589
v -0.335785 0.000000 -0.938106
v -0.512349 0.000000 -0.854572
v -0.669223 0.000000 -0.738197
v -0.800379 0.000000 -0.593454
v -0.900777 0.000000 -0.425905
v -0.966559 0.000000 -0.241989
v -0.995196 0.000000 -0.048773
v -0.985589 0.000000 0.146318
v -0.938106 0.000000 0.335785
v -0.854572 0.000000 0.512349
v -0.738197 0.000000 0.669223
v -0.593454 0.000000 0.800379
v -0.425905 0.000000 0.900777
v -0.241989 0.000000 0.966559
v -0.048773 0.000000 0.995196
v 0.146318 0.000000 0.985589
v 0.335785 0.000000 0.938106
v 0.512349 0.000000 0.854572
v 0.669223 0.000000 0.738197
v 0.800379 0.000000 0.593454
v 0.900777 0.000000 0.425905
v 0.966559 0.000000 0.241989
v 0.995196 0.000000 0.048773
v 0.985589 0.000000 -0.146318
v 0.938106 0.000000 -0.335785
v 0.854572 0.000000 -0.512349
v 0.738197 0.000000 -0.669223
v 0.593454 0.000000 -0.800379
v 0.425905 0.000000 -0.900777
v 0.241989 0.000000 -0.966559
v 0.048773 0.000000 -0.995196
vn -0.0000 1.0000 -0.0000
vt 0.000000 0.000000
s 0
f 65/1/1 33/1/1 97/1/1 2/1/1 66/1/1 34/1/1 98/1/1 3/1/1 67/1/1 35/1/1 99/1/1 4/1/1 68/1/1 36/1/1 100/1/1 5/1/1 69/1/1 37/1/1 101/1/1 6/1/1 70/1/1 38/1/1 102/1/1 7/1/1 71/1/1 39/1/1 103/1/1 8/1/1 72/1/1 40/1/1 104/1/1 9/1/1 73/1/1 41/1/1 105/1/1 10/1/1 74/1/1 42/1/1 106/1/1 11/1/1 75/1/1 43/1/1 107/1/1 12/1/1 76/1/1 44/1/1 108/1/1 13/1/1 77/1/1 45/1/1 109/1/1 14/1/1 78/1/1 46/1/1 110/1/1 15/1/1 79/1/1 47/1/1 111/1/1 16/1/1 80/1/1 48/1/1 112/1/1 17/1/1 81/1/1 49/1/1 113/1/1 18/1/1 82/1/1 50/1/1 114/1/1 19/1/1 83/1/1 51/1/1 115/1/1 20/1/1 84/1/1 52/1/1 116/1/1 21/1/1 85/1/1 53/1/1 117/1/1 22/1/1 86/1/1 54/1/1 118/1/1 23/1/1 87/1/1 55/1/1 119/1/1 24/1/1 88/1/1 56/1/1 120/1/1 25/1/1 89/1/1 57/1/1 121/1/1 26/1/1 90/1/1 58/1/1 122/1/1 27/1/1 91/1/1 59/1/1 123/1/1 28/1/1 92/1/1 60/1/1 124/1/1 29/1/1 93/1/1 61/1/1 125/1/1 30/1/1 94/1/1 62/1/1 126/1/1 31/1/1 95/1/1 63/1/1 127/1/1 32/1/1 96/1/1 64/1/1 128/1/1 1/1/1
