# Blender 4.5.0
# www.blender.org
mtllib ControlPoint.mtl
o ControlPoint
v 1.000000 -0.409206 -0.704142
v 0.704142 -0.409206 -1.000000
v 0.985520 -0.409206 -0.795567
v 0.943496 -0.409206 -0.878043
v 0.878043 -0.409206 -0.943496
v 0.795567 -0.409206 -0.985520
v 0.700054 0.094248 -0.948057
v 0.948057 0.094248 -0.700054
v 0.779316 0.094248 -0.935504
v 0.847131 0.094248 -0.900950
v 0.900950 0.094248 -0.847131
v 0.935504 0.094248 -0.779316
v 0.704142 -0.409206 1.000000
v 1.000000 -0.409206 0.704142
v 0.795567 -0.409206 0.985520
v 0.878043 -0.409206 0.943496
v 0.943496 -0.409206 0.878043
v 0.985520 -0.409206 0.795567
v 0.948057 0.094248 0.700054
v 0.700054 0.094248 0.948057
v 0.935504 0.094248 0.779316
v 0.900950 0.094248 0.847131
v 0.847131 0.094248 0.900950
v 0.779316 0.094248 0.935504
v -0.704142 -0.409206 -1.000000
v -1.000000 -0.409206 -0.704142
v -0.795567 -0.409206 -0.985520
v -0.878043 -0.409206 -0.943496
v -0.943496 -0.409206 -0.878043
v -0.985520 -0.409206 -0.795567
v -0.948057 0.094248 -0.700054
v -0.700054 0.094248 -0.948057
v -0.935504 0.094248 -0.779316
v -0.900950 0.094248 -0.847131
v -0.847131 0.094248 -0.900950
v -0.779316 0.094248 -0.935504
v -1.000000 -0.409206 0.704142
v -0.704142 -0.409206 1.000000
v -0.985520 -0.409206 0.795567
v -0.943496 -0.409206 0.878043
v -0.878043 -0.409206 0.943496
v -0.795567 -0.409206 0.985520
v -0.700054 0.094248 0.948057
v -0.948057 0.094248 0.700054
v -0.779316 0.094248 0.935504
v -0.847131 0.094248 0.900950
v -0.900950 0.094248 0.847131
v -0.935504 0.094248 0.779316
v 1.000000 0.074738 -0.704142
v 0.985520 0.074738 -0.795567
v 0.943496 0.074738 -0.878043
v 0.878043 0.074738 -0.943496
v 0.795567 0.074738 -0.985520
v 0.704142 0.074738 -1.000000
v -0.795567 0.074738 0.985520
v -0.704142 0.074738 1.000000
v -0.878043 0.074738 0.943496
v -0.943496 0.074738 0.878043
v -0.985520 0.074738 0.795567
v -1.000000 0.074738 0.704142
v 0.704142 0.074738 1.000000
v 0.795567 0.074738 0.985520
v 0.878043 0.074738 0.943496
v 0.943496 0.074738 0.878043
v 0.985520 0.074738 0.795567
v 1.000000 0.074738 0.704142
v -0.704142 0.074738 -1.000000
v -0.795567 0.074738 -0.985520
v -0.878043 0.074738 -0.943496
v -0.943496 0.074738 -0.878043
v -0.985520 0.074738 -0.795567
v -1.000000 0.074738 -0.704142
v 0.977341 0.083112 -0.702359
v 0.963701 0.083112 -0.788478
v 0.924936 0.083112 -0.864558
v 0.864558 0.083112 -0.924936
v 0.788478 0.083112 -0.963701
v 0.702359 0.083112 -0.977341
v -0.788478 0.083112 0.963701
v -0.702359 0.083112 0.977341
v -0.864558 0.083112 0.924936
v -0.924936 0.083112 0.864558
v -0.963701 0.083112 0.788478
v -0.977341 0.083112 0.702359
v 0.702359 0.083112 0.977341
v 0.788478 0.083112 0.963701
v 0.864558 0.083112 0.924936
v 0.924936 0.083112 0.864558
v 0.963701 0.083112 0.788478
v 0.977341 0.083112 0.702359
v -0.702359 0.083112 -0.977341
v -0.788478 0.083112 -0.963701
v -0.864558 0.083112 -0.924936
v -0.924936 0.083112 -0.864558
v -0.963701 0.083112 -0.788478
v -0.977341 0.083112 -0.702359
vn 0.9969 -0.0000 -0.0785
vn 0.5971 0.8008 -0.0470
vn 0.5682 0.8019 -0.1846
vn 0.9511 -0.0000 -0.3090
vn 0.4833 0.8019 -0.3511
vn 0.8090 -0.0000 -0.5878
vn 0.3511 0.8019 -0.4833
vn 0.5878 -0.0000 -0.8090
vn 0.1846 0.8019 -0.5682
vn 0.3090 -0.0000 -0.9511
vn 0.0470 0.8008 -0.5971
vn 0.0785 -0.0000 -0.9969
vn -0.0470 0.8008 0.5971
vn -0.0785 -0.0000 0.9969
vn -0.3090 -0.0000 0.9511
vn -0.1846 0.8019 0.5682
vn -0.5878 -0.0000 0.8090
vn -0.3511 0.8019 0.4833
vn -0.8090 -0.0000 0.5878
vn -0.4833 0.8019 0.3511
vn -0.9511 -0.0000 0.3090
vn -0.5682 0.8019 0.1846
vn -0.9969 -0.0000 0.0785
vn -0.5971 0.8008 0.0470
vn 0.0785 -0.0000 0.9969
vn 0.0470 0.8008 0.5971
vn 0.1846 0.8019 0.5682
vn 0.3090 -0.0000 0.9511
vn 0.3511 0.8019 0.4833
vn 0.5878 -0.0000 0.8090
vn 0.4833 0.8019 0.3511
vn 0.8090 -0.0000 0.5878
vn 0.5682 0.8019 0.1846
vn 0.9511 -0.0000 0.3090
vn 0.5971 0.8008 0.0470
vn 0.9969 -0.0000 0.0785
vn -0.0785 -0.0000 -0.9969
vn -0.0470 0.8008 -0.5971
vn -0.1846 0.8019 -0.5682
vn -0.3090 -0.0000 -0.9511
vn -0.3511 0.8019 -0.4833
vn -0.5878 -0.0000 -0.8090
vn -0.4833 0.8019 -0.3511
vn -0.8090 -0.0000 -0.5878
vn -0.5682 0.8019 -0.1846
vn -0.9511 -0.0000 -0.3090
vn -0.5971 0.8008 -0.0470
vn -0.9969 -0.0000 -0.0785
vn -0.0000 -1.0000 -0.0000
vn -0.0000 1.0000 -0.0000
vn 0.3489 0.9367 -0.0275
vn 0.3301 0.9378 -0.1073
vn 0.2808 0.9378 -0.2040
vn 0.2040 0.9378 -0.2808
vn 0.1073 0.9378 -0.3301
vn 0.0275 0.9367 -0.3489
vn -0.1073 0.9378 0.3301
vn -0.0275 0.9367 0.3489
vn -0.2040 0.9378 0.2808
vn -0.2808 0.9378 0.2040
vn -0.3301 0.9378 0.1073
vn -0.3489 0.9367 0.0275
vn 0.0275 0.9367 0.3489
vn 0.1073 0.9378 0.3301
vn 0.2040 0.9378 0.2808
vn 0.2808 0.9378 0.2040
vn 0.3301 0.9378 0.1073
vn 0.3489 0.9367 0.0275
vn -0.0275 0.9367 -0.3489
vn -0.1073 0.9378 -0.3301
vn -0.2040 0.9378 -0.2808
vn -0.2808 0.9378 -0.2040
vn -0.3301 0.9378 -0.1073
vn -0.3489 0.9367 -0.0275
vn 0.3534 0.9351 -0.0278
vn 0.3344 0.9361 -0.1087
vn 0.2845 0.9361 -0.2067
vn 0.2067 0.9361 -0.2845
vn 0.1087 0.9361 -0.3344
vn 0.0278 0.9351 -0.3534
vn -0.1087 0.9361 0.3344
vn -0.0278 0.9351 0.3534
vn -0.2067 0.9361 0.2845
vn -0.2845 0.9361 0.2067
vn -0.3344 0.9361 0.1087
vn -0.3534 0.9351 0.0278
vn 0.0278 0.9351 0.3534
vn 0.1087 0.9361 0.3344
vn 0.2067 0.9361 0.2845
vn 0.2845 0.9361 0.2067
vn 0.3344 0.9361 0.1087
vn 0.3534 0.9351 0.0278
vn -0.0278 0.9351 -0.3534
vn -0.1087 0.9361 -0.3344
vn -0.2067 0.9361 -0.2845
vn -0.2845 0.9361 -0.2067
vn -0.3344 0.9361 -0.1087
vn -0.3534 0.9351 -0.0278
vt 0.625000 0.536982
vt 0.375000 0.536982
vt 0.373346 0.525554
vt 0.626654 0.525554
vt 0.368547 0.515245
vt 0.631453 0.515245
vt 0.361071 0.505138
vt 0.638929 0.505138
vt 0.351651 0.499449
vt 0.648349 0.499449
vt 0.354055 0.483963
vt 0.645945 0.483963
vt 0.375000 0.963018
vt 0.625000 0.963018
vt 0.625000 0.974446
vt 0.375000 0.974446
vt 0.625000 1.000000
vt 0.375000 1.000000
vt 0.375000 0.000000
vt 0.625000 0.000000
vt 0.625000 0.015245
vt 0.375000 0.015245
vt 0.625000 0.025554
vt 0.375000 0.025554
vt 0.625000 0.036982
vt 0.375000 0.036982
vt 0.645945 0.766037
vt 0.354055 0.766037
vt 0.351651 0.750551
vt 0.648349 0.750551
vt 0.361071 0.744862
vt 0.638929 0.744862
vt 0.368547 0.734755
vt 0.631454 0.734755
vt 0.373346 0.724446
vt 0.626654 0.724446
vt 0.375000 0.713018
vt 0.625000 0.713018
vt 0.625000 0.286982
vt 0.375000 0.286982
vt 0.375000 0.275554
vt 0.625000 0.275554
vt 0.375000 0.265245
vt 0.625000 0.265245
vt 0.375000 0.234755
vt 0.625000 0.234755
vt 0.375000 0.224446
vt 0.625000 0.224446
vt 0.375000 0.213018
vt 0.625000 0.213018
vt 0.838018 0.500000
vt 0.849446 0.501810
vt 0.859755 0.507063
vt 0.867937 0.515245
vt 0.873190 0.525554
vt 0.875000 0.536982
vt 0.875000 0.713018
vt 0.873190 0.724446
vt 0.867937 0.734755
vt 0.859755 0.742937
vt 0.849446 0.748190
vt 0.838018 0.750000
vt 0.131615 0.537470
vt 0.133167 0.527570
vt 0.137477 0.519100
vt 0.144201 0.512376
vt 0.152694 0.508043
vt 0.162778 0.506307
vt 0.348942 0.495141
vt 0.352048 0.503384
vt 0.357948 0.510215
vt 0.363803 0.518268
vt 0.367675 0.527134
vt 0.369069 0.537116
vt 0.369069 0.712884
vt 0.367675 0.722866
vt 0.363803 0.731732
vt 0.357949 0.739786
vt 0.352048 0.746616
vt 0.348942 0.754859
vt 0.162778 0.743693
vt 0.152694 0.741957
vt 0.144201 0.737624
vt 0.137477 0.730900
vt 0.133167 0.722429
vt 0.131615 0.712529
vt 0.372415 0.537043
vt 0.370872 0.526260
vt 0.366471 0.516529
vt 0.359648 0.507460
vt 0.352166 0.500813
vt 0.351548 0.489118
vt 0.151481 0.745463
vt 0.162351 0.747267
vt 0.161982 0.750000
vt 0.150554 0.748190
vt 0.141970 0.740617
vt 0.140245 0.742937
vt 0.134426 0.733073
vt 0.132063 0.734755
vt 0.129585 0.723566
vt 0.126810 0.724446
vt 0.127889 0.712805
vt 0.125000 0.713018
vt 0.351548 0.760882
vt 0.352166 0.749188
vt 0.359649 0.742541
vt 0.366471 0.733471
vt 0.370872 0.723740
vt 0.372415 0.712956
vt 0.162351 0.502733
vt 0.151481 0.504537
vt 0.150554 0.501810
vt 0.161982 0.500000
vt 0.141970 0.509383
vt 0.140245 0.507063
vt 0.134426 0.516927
vt 0.132063 0.515245
vt 0.129585 0.526434
vt 0.126810 0.525554
vt 0.127889 0.537195
vt 0.125000 0.536982
s 1
usemtl Material
f 1/1/1 3/4/4 50/3/3 49/2/2
f 3/4/4 4/6/6 51/5/5 50/3/3
f 4/6/6 5/8/8 52/7/7 51/5/5
f 5/8/8 6/10/10 53/9/9 52/7/7
f 6/10/10 2/12/12 54/11/11 53/9/9
f 56/13/13 55/16/16 42/15/15 38/14/14
f 55/16/16 57/18/18 41/17/17 42/15/15
f 57/19/18 58/22/20 40/21/19 41/20/17
f 58/22/20 59/24/22 39/23/21 40/21/19
f 59/24/22 60/26/24 37/25/23 39/23/21
f 13/27/25 15/30/28 62/29/27 61/28/26
f 15/30/28 16/32/30 63/31/29 62/29/27
f 16/32/30 17/34/32 64/33/31 63/31/29
f 17/34/32 18/36/34 65/35/33 64/33/31
f 18/36/34 14/38/36 66/37/35 65/35/33
f 25/39/37 27/42/40 68/41/39 67/40/38
f 27/42/40 28/44/42 69/43/41 68/41/39
f 28/44/42 29/46/44 70/45/43 69/43/41
f 29/46/44 30/48/46 71/47/45 70/45/43
f 30/48/46 26/50/48 72/49/47 71/47/45
f 67/40/38 54/11/11 2/12/12 25/39/37
f 49/2/2 66/37/35 14/38/36 1/1/1
f 1/1/49 14/38/49 18/36/49 17/34/49 16/32/49 15/30/49 13/27/49 38/62/49 42/61/49 41/60/49 40/59/49 39/58/49 37/57/49 26/56/49 30/55/49 29/54/49 28/53/49 27/52/49 25/51/49 2/12/49 6/10/49 5/8/49 4/6/49 3/4/49
f 31/63/50 44/86/50 48/85/50 47/84/50 46/83/50 45/82/50 43/81/50 20/80/50 24/79/50 23/78/50 22/77/50 21/76/50 19/75/50 8/74/50 12/73/50 11/72/50 10/71/50 9/70/50 7/69/50 32/68/50 36/67/50 35/66/50 34/65/50 33/64/50
f 61/28/26 56/13/13 38/14/14 13/27/25
f 60/26/24 72/49/47 26/50/48 37/25/23
f 73/87/51 49/2/2 50/3/3 74/88/52
f 74/88/52 50/3/3 51/5/5 75/89/53
f 75/89/53 51/5/5 52/7/7 76/90/54
f 76/90/54 52/7/7 53/9/9 77/91/55
f 77/91/55 53/9/9 54/11/11 78/92/56
f 79/93/57 55/96/16 56/95/13 80/94/58
f 81/97/59 57/98/18 55/96/16 79/93/57
f 82/99/60 58/100/20 57/98/18 81/97/59
f 83/101/61 59/102/22 58/100/20 82/99/60
f 84/103/62 60/104/24 59/102/22 83/101/61
f 85/105/63 61/28/26 62/29/27 86/106/64
f 86/106/64 62/29/27 63/31/29 87/107/65
f 87/107/65 63/31/29 64/33/31 88/108/66
f 88/108/66 64/33/31 65/35/33 89/109/67
f 89/109/67 65/35/33 66/37/35 90/110/68
f 91/111/69 67/114/38 68/113/39 92/112/70
f 92/112/70 68/113/39 69/116/41 93/115/71
f 93/115/71 69/116/41 70/118/43 94/117/72
f 94/117/72 70/118/43 71/120/45 95/119/73
f 95/119/73 71/120/45 72/122/47 96/121/74
f 78/92/56 54/11/11 67/114/38 91/111/69
f 90/110/68 66/37/35 49/2/2 73/87/51
f 96/121/74 72/122/47 60/104/24 84/103/62
f 80/94/58 56/95/13 61/28/26 85/105/63
f 8/74/75 73/87/51 74/88/52 12/73/76
f 12/73/76 74/88/52 75/89/53 11/72/77
f 11/72/77 75/89/53 76/90/54 10/71/78
f 10/71/78 76/90/54 77/91/55 9/70/79
f 9/70/79 77/91/55 78/92/56 7/69/80
f 45/82/81 79/93/57 80/94/58 43/81/82
f 46/83/83 81/97/59 79/93/57 45/82/81
f 47/84/84 82/99/60 81/97/59 46/83/83
f 48/85/85 83/101/61 82/99/60 47/84/84
f 44/86/86 84/103/62 83/101/61 48/85/85
f 20/80/87 85/105/63 86/106/64 24/79/88
f 24/79/88 86/106/64 87/107/65 23/78/89
f 23/78/89 87/107/65 88/108/66 22/77/90
f 22/77/90 88/108/66 89/109/67 21/76/91
f 21/76/91 89/109/67 90/110/68 19/75/92
f 32/68/93 91/111/69 92/112/70 36/67/94
f 36/67/94 92/112/70 93/115/71 35/66/95
f 35/66/95 93/115/71 94/117/72 34/65/96
f 34/65/96 94/117/72 95/119/73 33/64/97
f 33/64/97 95/119/73 96/121/74 31/63/98
f 7/69/80 78/92/56 91/111/69 32/68/93
f 19/75/92 90/110/68 73/87/51 8/74/75
f 31/63/98 96/121/74 84/103/62 44/86/86
f 43/81/82 80/94/58 85/105/63 20/80/87
