# Blender 4.2.3 LTS
# www.blender.org
mtllib pointer.mtl
o Cube
v 0.000000 1.000000 0.000000
v 0.295544 1.939410 -0.295544
v 0.295544 1.939410 0.295544
v -0.295544 1.939410 0.295544
v -0.295544 1.939410 -0.295544
vn -0.0000 1.0000 -0.0000
vn -0.9539 -0.3001 -0.0000
vn 0.9539 -0.3001 -0.0000
vn -0.0000 -0.3001 -0.9539
vn -0.0000 -0.3001 0.9539
vt 0.625000 0.500000
vt 0.875000 0.500000
vt 0.875000 0.750000
vt 0.625000 0.750000
s 0
f 4/1/1 3/2/1 2/3/1 5/4/1
f 1/1/2 4/1/2 5/4/2
f 1/3/3 2/3/3 3/2/3
f 1/4/4 5/4/4 2/3/4
f 1/2/5 3/2/5 4/1/5
